<svg width="16" height="16" viewBox="0 0 16 16" fill="none" xmlns="http://www.w3.org/2000/svg">
<path fill-rule="evenodd" clip-rule="evenodd" d="M8.22156 15.5C12.4555 15.5 15.8877 12.1421 15.8877 8C15.8877 3.85786 12.4555 0.5 8.22156 0.5C3.98767 0.5 0.55542 3.85786 0.55542 8C0.55542 12.1421 3.98767 15.5 8.22156 15.5ZM12.39 6.14844C12.7481 5.72801 12.6976 5.09686 12.2772 4.73873C11.8567 4.38061 11.2256 4.43112 10.8675 4.85156L7.99798 8.22032C7.65349 8.62474 7.46058 8.84776 7.30701 8.98472L7.30115 8.98992L7.29483 8.98527C7.12947 8.86281 6.91713 8.65821 6.53739 8.28669L5.5137 7.28519C5.11893 6.89897 4.4858 6.9059 4.09958 7.30068C3.71335 7.69546 3.72029 8.32859 4.11507 8.71481L5.13875 9.71631L5.17945 9.75613L5.17947 9.75616C5.50284 10.0726 5.81469 10.3778 6.10453 10.5925C6.42975 10.8334 6.85346 11.0584 7.39402 11.0339C7.93459 11.0093 8.33614 10.7467 8.63818 10.4774C8.90735 10.2373 9.19024 9.90508 9.48357 9.56058L9.48358 9.56056L9.52051 9.5172L12.39 6.14844Z" fill="#6F9B79"/>
</svg>
