<svg width="20" height="20" viewBox="0 0 20 20" fill="none" xmlns="http://www.w3.org/2000/svg">
<path d="M7.50016 10.8335L6.79306 10.1264L7.50016 9.41928L8.20727 10.1264L7.50016 10.8335ZM8.50016 18.3335C8.50016 18.8858 8.05245 19.3335 7.50016 19.3335C6.94788 19.3335 6.50016 18.8858 6.50016 18.3335L8.50016 18.3335ZM2.62639 14.2931L6.79306 10.1264L8.20727 11.5406L4.0406 15.7073L2.62639 14.2931ZM8.20727 10.1264L12.3739 14.2931L10.9597 15.7073L6.79306 11.5406L8.20727 10.1264ZM8.50016 10.8335L8.50016 18.3335L6.50016 18.3335L6.50016 10.8335L8.50016 10.8335Z" fill="#33363F"/>
<path d="M12.5002 9.1665L11.7931 9.87361L12.5002 10.5807L13.2073 9.87361L12.5002 9.1665ZM13.5002 1.6665C13.5002 1.11422 13.0524 0.666504 12.5002 0.666504C11.9479 0.666504 11.5002 1.11422 11.5002 1.6665L13.5002 1.6665ZM7.62639 5.70694L11.7931 9.87361L13.2073 8.4594L9.0406 4.29273L7.62639 5.70694ZM13.2073 9.87361L17.3739 5.70694L15.9597 4.29273L11.7931 8.4594L13.2073 9.87361ZM13.5002 9.1665L13.5002 1.6665L11.5002 1.6665L11.5002 9.1665L13.5002 9.1665Z" fill="#33363F"/>
</svg>
