<svg width="16" height="15" viewBox="0 0 16 15" fill="none" xmlns="http://www.w3.org/2000/svg">
<path d="M8.00004 13.8334L2.06872 6.78997C1.70968 6.36361 1.53015 6.15042 1.48234 5.88945C1.43452 5.62849 1.52679 5.3655 1.71135 4.83953L2.06122 3.8424C2.51476 2.54981 2.74153 1.90351 3.26118 1.53513C3.78084 1.16675 4.46577 1.16675 5.83562 1.16675H10.1645C11.5343 1.16675 12.2192 1.16675 12.7389 1.53513C13.2586 1.90351 13.4853 2.54981 13.9389 3.8424L14.2887 4.83953C14.4733 5.3655 14.5656 5.62849 14.5177 5.88945C14.4699 6.15042 14.2904 6.36361 13.9314 6.78998L8.00004 13.8334Z" fill="#D0E872" fill-opacity="0.25"/>
<path d="M8.00004 13.8334L2.06872 6.78997C1.70968 6.36361 1.53015 6.15042 1.48234 5.88945C1.43452 5.62849 1.52679 5.3655 1.71135 4.83953L2.06122 3.8424C2.51476 2.54981 2.74153 1.90351 3.26118 1.53513C3.78084 1.16675 4.46577 1.16675 5.83562 1.16675H10.1645C11.5343 1.16675 12.2192 1.16675 12.7389 1.53513C13.2586 1.90351 13.4853 2.54981 13.9389 3.8424L14.2887 4.83953C14.4733 5.3655 14.5656 5.62849 14.5177 5.88945C14.4699 6.15042 14.2904 6.36361 13.9314 6.78998L8.00004 13.8334ZM8.00004 13.8334L10.9167 5.12508M8.00004 13.8334L5.08337 5.12508M14.25 5.91675L10.9167 5.12508M10.9167 5.12508L9.66671 1.95841M10.9167 5.12508H5.08337M6.33337 1.95841L5.08337 5.12508M5.08337 5.12508L1.75004 5.91675" stroke="#464645" stroke-width="1.4" stroke-linecap="round"/>
</svg>
