<svg width="42" height="61" viewBox="0 0 42 61" fill="none" xmlns="http://www.w3.org/2000/svg">
<path d="M10.5832 20.7515C10.5832 17.2885 6.1966 16.3706 5.03281 19.6109C2.21768 27.4488 0.166504 34.4604 0.166504 38.2512C0.166504 50.3324 9.49391 60.1262 20.9998 60.1262C32.5058 60.1262 41.8332 50.3324 41.8332 38.2512C41.8332 34.1785 39.4656 26.3881 36.3267 17.8495C32.2606 6.78869 30.2275 1.25827 27.7179 0.960387C26.9148 0.86507 26.0388 1.03644 25.3223 1.429C23.0832 2.6558 23.0832 8.6877 23.0832 20.7515C23.0832 24.3759 20.285 27.314 16.8332 27.314C13.3814 27.314 10.5832 24.3759 10.5832 20.7515Z" fill="#B95A5A"/>
</svg>
