<svg width="20" height="20" viewBox="0 0 20 20" fill="none" xmlns="http://www.w3.org/2000/svg">
<path d="M5 4.6665V10.8332H8.54863C8.84934 10.8332 8.99969 10.8332 9.12052 10.9078C9.24134 10.9825 9.30858 11.117 9.44306 11.386L9.72361 11.9471C9.85809 12.216 9.92533 12.3505 10.0462 12.4252C10.167 12.4998 10.3173 12.4998 10.618 12.4998H14.5C14.7357 12.4998 14.8536 12.4998 14.9268 12.4266C15 12.3534 15 12.2355 15 11.9998V6.33317C15 6.09747 15 5.97962 14.9268 5.90639C14.8536 5.83317 14.7357 5.83317 14.5 5.83317H10.618C10.3173 5.83317 10.167 5.83317 10.0462 5.7585C9.92533 5.68382 9.85809 5.54934 9.72361 5.28038L9.44306 4.71929C9.30858 4.45033 9.24134 4.31585 9.12052 4.24118C8.99969 4.1665 8.84934 4.1665 8.54863 4.1665H5.5C5.2643 4.1665 5.14645 4.1665 5.07322 4.23973C5 4.31295 5 4.4308 5 4.6665Z" fill="white" fill-opacity="0.25"/>
<path d="M5 10.8332V4.6665C5 4.4308 5 4.31295 5.07322 4.23973C5.14645 4.1665 5.2643 4.1665 5.5 4.1665H8.54863C8.84934 4.1665 8.99969 4.1665 9.12052 4.24118C9.24134 4.31585 9.30858 4.45033 9.44306 4.71929L9.72361 5.28038C9.85809 5.54934 9.92533 5.68382 10.0462 5.7585C10.167 5.83317 10.3173 5.83317 10.618 5.83317H14.5C14.7357 5.83317 14.8536 5.83317 14.9268 5.90639C15 5.97962 15 6.09747 15 6.33317V11.9998C15 12.2355 15 12.3534 14.9268 12.4266C14.8536 12.4998 14.7357 12.4998 14.5 12.4998H10.618C10.3173 12.4998 10.167 12.4998 10.0462 12.4252C9.92533 12.3505 9.85809 12.216 9.72361 11.9471L9.44306 11.386C9.30858 11.117 9.24134 10.9825 9.12052 10.9078C8.99969 10.8332 8.84934 10.8332 8.54863 10.8332H5ZM5 10.8332V15.8332" stroke="#3F3F3F" stroke-linecap="round"/>
</svg>
