<svg width="86" height="30" viewBox="0 0 86 30" fill="none" xmlns="http://www.w3.org/2000/svg">
<path d="M7.38231 4.25993L0.0186768 8.68102V12.8519V17.0227L1.74595 16.0634C2.65504 15.5212 6.01868 13.5609 9.2005 11.6423L14.9732 8.22223L22.3823 12.6016L29.7914 16.981L29.9278 12.8936C30.0641 9.34836 29.9732 8.72273 29.246 8.26394C27.8823 7.30464 15.7459 0.172506 15.2459 0.00567237C14.9732 -0.119453 11.4732 1.79913 7.38231 4.25993Z" fill="url(#paint0_linear_565_719)"/>
<path d="M7.18182 14.9227L0 19.3021V23.473V27.6438L4 25.2664C6.18182 23.9735 9.40909 22.0132 11.2273 20.887C13.0455 19.8026 14.7273 18.885 14.9545 18.885C15.2273 18.885 18.7273 20.8453 22.7273 23.2644L30 27.6021V23.3478V19.0936L22.7273 14.7976C18.7273 12.4619 15.1818 10.5433 14.8636 10.5433C14.5909 10.5433 11.0909 12.5454 7.18182 14.9227Z" fill="url(#paint1_linear_565_719)"/>
<path d="M5.3999 27.0549L14.9999 21.1646L24.5999 27.0549L20.3999 30.0001L14.9999 27.3495L9.5999 30.0001L5.3999 27.0549Z" fill="url(#paint2_linear_565_719)"/>
<path d="M41.584 22V12.592H38.384V10.544H46.944V12.592H43.744V22H41.584ZM51.853 21.168H51.725C51.4797 21.4667 51.181 21.7227 50.829 21.936C50.4877 22.1493 50.045 22.256 49.501 22.256C49.0957 22.256 48.7117 22.1867 48.349 22.048C47.997 21.92 47.6877 21.7387 47.421 21.504C47.1543 21.2693 46.9463 20.9867 46.797 20.656C46.6477 20.3253 46.573 19.9627 46.573 19.568C46.573 19.1627 46.653 18.8 46.813 18.48C46.973 18.1493 47.197 17.8667 47.485 17.632C47.773 17.3973 48.109 17.2213 48.493 17.104C48.8877 16.976 49.3143 16.912 49.773 16.912C50.285 16.912 50.7063 16.9547 51.037 17.04C51.3677 17.1147 51.6397 17.1947 51.853 17.28V17.04C51.853 16.624 51.6877 16.2827 51.357 16.016C51.0263 15.7387 50.6157 15.6 50.125 15.6C49.3997 15.6 48.7863 15.904 48.285 16.512L46.765 15.472C47.597 14.4267 48.733 13.904 50.173 13.904C51.389 13.904 52.317 14.192 52.957 14.768C53.597 15.3333 53.917 16.176 53.917 17.296V22H51.853V21.168ZM51.853 18.816C51.6077 18.6987 51.3517 18.608 51.085 18.544C50.829 18.4693 50.5463 18.432 50.237 18.432C49.7357 18.432 49.3463 18.544 49.069 18.768C48.8023 18.9813 48.669 19.248 48.669 19.568C48.669 19.888 48.797 20.144 49.053 20.336C49.3197 20.528 49.6237 20.624 49.965 20.624C50.2423 20.624 50.4983 20.576 50.733 20.48C50.9677 20.3733 51.165 20.24 51.325 20.08C51.4957 19.9093 51.6237 19.7173 51.709 19.504C51.805 19.28 51.853 19.0507 51.853 18.816ZM58.6094 22.256C58.0974 22.256 57.6387 22.192 57.2334 22.064C56.8387 21.936 56.492 21.7707 56.1934 21.568C55.9054 21.3547 55.66 21.1147 55.4574 20.848C55.2547 20.5707 55.1 20.2933 54.9934 20.016L56.8654 19.216C57.0467 19.6213 57.2867 19.9253 57.5854 20.128C57.8947 20.32 58.236 20.416 58.6094 20.416C58.9934 20.416 59.2974 20.3467 59.5214 20.208C59.7454 20.0693 59.8574 19.904 59.8574 19.712C59.8574 19.4987 59.7614 19.328 59.5694 19.2C59.388 19.0613 59.068 18.9387 58.6094 18.832L57.5054 18.592C57.26 18.5387 57.004 18.4533 56.7374 18.336C56.4814 18.2187 56.2467 18.0693 56.0334 17.888C55.82 17.7067 55.644 17.488 55.5054 17.232C55.3667 16.976 55.2974 16.6773 55.2974 16.336C55.2974 15.952 55.3774 15.6107 55.5374 15.312C55.708 15.0133 55.9374 14.7627 56.2254 14.56C56.5134 14.3467 56.8494 14.1867 57.2334 14.08C57.628 13.9627 58.0494 13.904 58.4974 13.904C59.244 13.904 59.9107 14.0533 60.4974 14.352C61.084 14.64 61.516 15.104 61.7934 15.744L59.9854 16.48C59.836 16.1707 59.6174 15.9467 59.3294 15.808C59.0414 15.6693 58.7534 15.6 58.4654 15.6C58.1667 15.6 57.9054 15.664 57.6814 15.792C57.4574 15.9093 57.3454 16.064 57.3454 16.256C57.3454 16.4373 57.436 16.5813 57.6174 16.688C57.8094 16.7947 58.0654 16.8907 58.3854 16.976L59.5854 17.264C60.3854 17.456 60.9774 17.7653 61.3614 18.192C61.756 18.608 61.9534 19.104 61.9534 19.68C61.9534 20.0213 61.8734 20.3467 61.7134 20.656C61.5534 20.9653 61.324 21.2427 61.0254 21.488C60.7374 21.7227 60.3854 21.9093 59.9694 22.048C59.564 22.1867 59.1107 22.256 58.6094 22.256ZM63.2398 10.544H65.3358V16.784H65.4318L68.0558 14.16H70.6478V14.288L67.7358 17.12L70.8878 21.872V22H68.4078L66.2638 18.56L65.3358 19.472V22H63.2398V10.544ZM78.9138 20.112C78.5511 20.752 78.0604 21.2693 77.4418 21.664C76.8338 22.0587 76.0871 22.256 75.2018 22.256C74.6044 22.256 74.0498 22.1547 73.5378 21.952C73.0364 21.7387 72.5991 21.4453 72.2258 21.072C71.8524 20.6987 71.5591 20.2613 71.3458 19.76C71.1431 19.248 71.0418 18.688 71.0418 18.08C71.0418 17.5147 71.1431 16.9813 71.3458 16.48C71.5484 15.968 71.8311 15.5253 72.1938 15.152C72.5564 14.768 72.9831 14.464 73.4738 14.24C73.9751 14.016 74.5244 13.904 75.1218 13.904C75.7511 13.904 76.3111 14.0107 76.8018 14.224C77.2924 14.4267 77.7031 14.7147 78.0338 15.088C78.3644 15.4507 78.6151 15.8827 78.7858 16.384C78.9564 16.8853 79.0417 17.4293 79.0417 18.016C79.0417 18.0907 79.0417 18.1547 79.0417 18.208C79.0311 18.272 79.0258 18.3307 79.0258 18.384C79.0151 18.4373 79.0098 18.496 79.0098 18.56H73.1058C73.1484 18.88 73.2338 19.1573 73.3618 19.392C73.5004 19.616 73.6658 19.808 73.8578 19.968C74.0604 20.1173 74.2791 20.2293 74.5138 20.304C74.7484 20.368 74.9884 20.4 75.2338 20.4C75.7138 20.4 76.1084 20.2933 76.4178 20.08C76.7378 19.856 76.9884 19.5787 77.1698 19.248L78.9138 20.112ZM77.0098 17.072C76.9991 16.9333 76.9511 16.7787 76.8658 16.608C76.7911 16.4373 76.6738 16.2773 76.5138 16.128C76.3644 15.9787 76.1724 15.856 75.9378 15.76C75.7138 15.664 75.4418 15.616 75.1218 15.616C74.6738 15.616 74.2791 15.744 73.9378 16C73.5964 16.256 73.3564 16.6133 73.2178 17.072H77.0098ZM80.3804 14.16H82.3484V15.248H82.4764C82.5724 15.056 82.7004 14.88 82.8604 14.72C83.0204 14.56 83.1964 14.4213 83.3884 14.304C83.591 14.1867 83.8044 14.096 84.0284 14.032C84.263 13.968 84.4924 13.936 84.7164 13.936C84.9937 13.936 85.2284 13.9627 85.4204 14.016C85.623 14.0693 85.7937 14.1387 85.9324 14.224L85.3724 16.128C85.2444 16.064 85.1004 16.016 84.9404 15.984C84.791 15.9413 84.6044 15.92 84.3804 15.92C84.0924 15.92 83.831 15.9787 83.5964 16.096C83.3617 16.2027 83.159 16.3573 82.9884 16.56C82.8284 16.7627 82.7004 17.0027 82.6044 17.28C82.519 17.5467 82.4764 17.84 82.4764 18.16V22H80.3804V14.16Z" fill="url(#paint3_linear_565_719)"/>
<defs>
<linearGradient id="paint0_linear_565_719" x1="14.9999" y1="17.0227" x2="14.9999" y2="-0.000116348" gradientUnits="userSpaceOnUse">
<stop stop-color="#8089DA"/>
<stop offset="1" stop-color="#35AAFE" stop-opacity="0.4"/>
</linearGradient>
<linearGradient id="paint1_linear_565_719" x1="15" y1="27.6438" x2="15" y2="10.5433" gradientUnits="userSpaceOnUse">
<stop stop-color="#8089DA"/>
<stop offset="1" stop-color="#35AAFE" stop-opacity="0.4"/>
</linearGradient>
<linearGradient id="paint2_linear_565_719" x1="14.9999" y1="21.1646" x2="14.9999" y2="30.0001" gradientUnits="userSpaceOnUse">
<stop stop-color="#8089DA"/>
<stop offset="1" stop-color="#35AAFE" stop-opacity="0.4"/>
</linearGradient>
<linearGradient id="paint3_linear_565_719" x1="62" y1="7" x2="62" y2="26" gradientUnits="userSpaceOnUse">
<stop stop-color="#8089DA"/>
<stop offset="1" stop-color="#35AAFE" stop-opacity="0.4"/>
</linearGradient>
</defs>
</svg>
