<svg width="108" height="40" viewBox="0 0 108 40" fill="none" xmlns="http://www.w3.org/2000/svg">
<path d="M9.84315 5.67999L0.0249634 11.5748V17.1359V22.697L2.32799 21.418C3.54011 20.695 8.02496 18.0813 12.2674 15.5232L19.9644 10.9631L29.8431 16.8022L39.7219 22.6414L39.9038 17.1915C40.0856 12.4646 39.9644 11.6304 38.9947 11.0187C37.1765 9.73961 20.9947 0.230089 20.328 0.00764465C19.9644 -0.159189 15.2977 2.39893 9.84315 5.67999Z" fill="url(#paint0_linear_93_298)"/>
<path d="M9.57576 19.8971L0 25.7363V31.2974V36.8585L5.33333 33.6887C8.24242 31.9647 12.5455 29.351 14.9697 27.8495C17.3939 26.4036 19.6364 25.1802 19.9394 25.1802C20.303 25.1802 24.9697 27.7939 30.303 31.0193L40 36.8029V31.1306V25.4582L30.303 19.7303C24.9697 16.616 20.2424 14.0579 19.8182 14.0579C19.4545 14.0579 14.7879 16.7273 9.57576 19.8971Z" fill="url(#paint1_linear_93_298)"/>
<path d="M7.20001 36.0731L20 28.2192L32.8 36.0731L27.2 40L20 36.4658L12.8 40L7.20001 36.0731Z" fill="url(#paint2_linear_93_298)"/>
<path d="M52.48 30V18.24H48.48V15.68H59.18V18.24H55.18V30H52.48ZM65.3163 28.96H65.1563C64.8496 29.3333 64.4763 29.6533 64.0362 29.92C63.6096 30.1867 63.0563 30.32 62.3763 30.32C61.8696 30.32 61.3896 30.2333 60.9363 30.06C60.4963 29.9 60.1096 29.6733 59.7763 29.38C59.4429 29.0867 59.1829 28.7333 58.9963 28.32C58.8096 27.9067 58.7163 27.4533 58.7163 26.96C58.7163 26.4533 58.8163 26 59.0163 25.6C59.2163 25.1867 59.4963 24.8333 59.8563 24.54C60.2163 24.2467 60.6363 24.0267 61.1163 23.88C61.6096 23.72 62.1429 23.64 62.7163 23.64C63.3563 23.64 63.8829 23.6933 64.2963 23.8C64.7096 23.8933 65.0496 23.9933 65.3163 24.1V23.8C65.3163 23.28 65.1096 22.8533 64.6963 22.52C64.2829 22.1733 63.7696 22 63.1562 22C62.2496 22 61.4829 22.38 60.8563 23.14L58.9563 21.84C59.9963 20.5333 61.4163 19.88 63.2163 19.88C64.7363 19.88 65.8963 20.24 66.6963 20.96C67.4963 21.6667 67.8963 22.72 67.8963 24.12V30H65.3163V28.96ZM65.3163 26.02C65.0096 25.8733 64.6896 25.76 64.3563 25.68C64.0363 25.5867 63.6829 25.54 63.2962 25.54C62.6696 25.54 62.1829 25.68 61.8363 25.96C61.5029 26.2267 61.3363 26.56 61.3363 26.96C61.3363 27.36 61.4963 27.68 61.8163 27.92C62.1496 28.16 62.5296 28.28 62.9563 28.28C63.3029 28.28 63.6229 28.22 63.9163 28.1C64.2096 27.9667 64.4563 27.8 64.6563 27.6C64.8696 27.3867 65.0296 27.1467 65.1363 26.88C65.2563 26.6 65.3163 26.3133 65.3163 26.02ZM73.7617 30.32C73.1217 30.32 72.5484 30.24 72.0417 30.08C71.5484 29.92 71.1151 29.7133 70.7417 29.46C70.3817 29.1933 70.0751 28.8933 69.8217 28.56C69.5684 28.2133 69.3751 27.8667 69.2417 27.52L71.5817 26.52C71.8084 27.0267 72.1084 27.4067 72.4817 27.66C72.8684 27.9 73.2951 28.02 73.7617 28.02C74.2417 28.02 74.6217 27.9333 74.9017 27.76C75.1817 27.5867 75.3217 27.38 75.3217 27.14C75.3217 26.8733 75.2017 26.66 74.9617 26.5C74.7351 26.3267 74.3351 26.1733 73.7617 26.04L72.3817 25.74C72.0751 25.6733 71.7551 25.5667 71.4217 25.42C71.1017 25.2733 70.8084 25.0867 70.5417 24.86C70.2751 24.6333 70.0551 24.36 69.8817 24.04C69.7084 23.72 69.6217 23.3467 69.6217 22.92C69.6217 22.44 69.7217 22.0133 69.9217 21.64C70.1351 21.2667 70.4217 20.9533 70.7817 20.7C71.1417 20.4333 71.5617 20.2333 72.0417 20.1C72.5351 19.9533 73.0617 19.88 73.6217 19.88C74.5551 19.88 75.3884 20.0667 76.1217 20.44C76.8551 20.8 77.3951 21.38 77.7417 22.18L75.4817 23.1C75.2951 22.7133 75.0217 22.4333 74.6617 22.26C74.3017 22.0867 73.9417 22 73.5817 22C73.2084 22 72.8817 22.08 72.6017 22.24C72.3217 22.3867 72.1817 22.58 72.1817 22.82C72.1817 23.0467 72.2951 23.2267 72.5217 23.36C72.7617 23.4933 73.0817 23.6133 73.4817 23.72L74.9817 24.08C75.9817 24.32 76.7217 24.7067 77.2017 25.24C77.6951 25.76 77.9417 26.38 77.9417 27.1C77.9417 27.5267 77.8417 27.9333 77.6417 28.32C77.4417 28.7067 77.1551 29.0533 76.7817 29.36C76.4217 29.6533 75.9817 29.8867 75.4617 30.06C74.9551 30.2333 74.3884 30.32 73.7617 30.32ZM79.5497 15.68H82.1697V23.48H82.2897L85.5697 20.2H88.8097V20.36L85.1697 23.9L89.1097 29.84V30H86.0097L83.3297 25.7L82.1697 26.84V30H79.5497V15.68ZM99.1422 27.64C98.6889 28.44 98.0755 29.0867 97.3022 29.58C96.5422 30.0733 95.6089 30.32 94.5022 30.32C93.7555 30.32 93.0622 30.1933 92.4222 29.94C91.7955 29.6733 91.2489 29.3067 90.7822 28.84C90.3155 28.3733 89.9489 27.8267 89.6822 27.2C89.4289 26.56 89.3022 25.86 89.3022 25.1C89.3022 24.3933 89.4289 23.7267 89.6822 23.1C89.9355 22.46 90.2889 21.9067 90.7422 21.44C91.1955 20.96 91.7289 20.58 92.3422 20.3C92.9689 20.02 93.6555 19.88 94.4022 19.88C95.1889 19.88 95.8889 20.0133 96.5022 20.28C97.1155 20.5333 97.6289 20.8933 98.0422 21.36C98.4555 21.8133 98.7689 22.3533 98.9822 22.98C99.1955 23.6067 99.3022 24.2867 99.3022 25.02C99.3022 25.1133 99.3022 25.1933 99.3022 25.26C99.2889 25.34 99.2822 25.4133 99.2822 25.48C99.2689 25.5467 99.2622 25.62 99.2622 25.7H91.8822C91.9355 26.1 92.0422 26.4467 92.2022 26.74C92.3755 27.02 92.5822 27.26 92.8222 27.46C93.0755 27.6467 93.3489 27.7867 93.6422 27.88C93.9355 27.96 94.2355 28 94.5422 28C95.1422 28 95.6355 27.8667 96.0222 27.6C96.4222 27.32 96.7355 26.9733 96.9622 26.56L99.1422 27.64ZM96.7622 23.84C96.7489 23.6667 96.6889 23.4733 96.5822 23.26C96.4889 23.0467 96.3422 22.8467 96.1422 22.66C95.9555 22.4733 95.7155 22.32 95.4222 22.2C95.1422 22.08 94.8022 22.02 94.4022 22.02C93.8422 22.02 93.3489 22.18 92.9222 22.5C92.4955 22.82 92.1955 23.2667 92.0222 23.84H96.7622ZM100.975 20.2H103.435V21.56H103.595C103.715 21.32 103.875 21.1 104.075 20.9C104.275 20.7 104.495 20.5267 104.735 20.38C104.989 20.2333 105.255 20.12 105.535 20.04C105.829 19.96 106.115 19.92 106.395 19.92C106.742 19.92 107.035 19.9533 107.275 20.02C107.529 20.0867 107.742 20.1733 107.915 20.28L107.215 22.66C107.055 22.58 106.875 22.52 106.675 22.48C106.489 22.4267 106.255 22.4 105.975 22.4C105.615 22.4 105.289 22.4733 104.995 22.62C104.702 22.7533 104.449 22.9467 104.235 23.2C104.035 23.4533 103.875 23.7533 103.755 24.1C103.649 24.4333 103.595 24.8 103.595 25.2V30H100.975V20.2Z" fill="url(#paint3_linear_93_298)"/>
<defs>
<linearGradient id="paint0_linear_93_298" x1="19.9999" y1="22.697" x2="19.9999" y2="-7.43866e-05" gradientUnits="userSpaceOnUse">
<stop stop-color="#8089DA"/>
<stop offset="1" stop-color="#35AAFE" stop-opacity="0.4"/>
</linearGradient>
<linearGradient id="paint1_linear_93_298" x1="20" y1="36.8585" x2="20" y2="14.0579" gradientUnits="userSpaceOnUse">
<stop stop-color="#8089DA"/>
<stop offset="1" stop-color="#35AAFE" stop-opacity="0.4"/>
</linearGradient>
<linearGradient id="paint2_linear_93_298" x1="20" y1="28.2192" x2="20" y2="40" gradientUnits="userSpaceOnUse">
<stop stop-color="#8089DA"/>
<stop offset="1" stop-color="#35AAFE" stop-opacity="0.4"/>
</linearGradient>
<linearGradient id="paint3_linear_93_298" x1="78" y1="11" x2="78" y2="35" gradientUnits="userSpaceOnUse">
<stop stop-color="#8089DA"/>
<stop offset="1" stop-color="#35AAFE" stop-opacity="0.4"/>
</linearGradient>
</defs>
</svg>
