<svg width="32" height="32" viewBox="0 0 32 32" fill="none" xmlns="http://www.w3.org/2000/svg">
<path fill-rule="evenodd" clip-rule="evenodd" d="M16 28C22.6274 28 28 22.6274 28 16C28 9.37258 22.6274 4 16 4C9.37258 4 4 9.37258 4 16C4 22.6274 9.37258 28 16 28ZM17.9596 19.3738C18.3501 19.7643 18.9832 19.7643 19.3738 19.3738C19.7643 18.9832 19.7643 18.3501 19.3738 17.9596L17.4142 16L19.3738 14.0404C19.7643 13.6499 19.7643 13.0168 19.3738 12.6262C18.9832 12.2357 18.3501 12.2357 17.9596 12.6262L16 14.5858L14.0404 12.6262C13.6499 12.2357 13.0168 12.2357 12.6262 12.6262C12.2357 13.0168 12.2357 13.6499 12.6262 14.0404L14.5858 16L12.6262 17.9596C12.2357 18.3501 12.2357 18.9832 12.6262 19.3738C13.0168 19.7643 13.6499 19.7643 14.0404 19.3738L16 17.4142L17.9596 19.3738ZM19.4442 7.68508C17.5205 6.88826 15.38 6.78311 13.3874 7.38754C11.3949 7.99197 9.67358 9.26858 8.51677 10.9999C7.35997 12.7311 6.83925 14.81 7.04334 16.8822C7.24743 18.9543 8.1637 20.8916 9.63604 22.364C10.0266 22.7545 10.6597 22.7545 11.0503 22.364C11.4408 21.9734 11.4408 21.3403 11.0503 20.9497C9.9051 19.8046 9.19244 18.2978 9.03371 16.6861C8.87497 15.0744 9.27997 13.4576 10.1797 12.111C11.0795 10.7645 12.4183 9.77153 13.968 9.30142C15.5178 8.83131 17.1826 8.91309 18.6788 9.53284C20.175 10.1526 21.41 11.272 22.1735 12.7002C22.9369 14.1285 23.1814 15.7773 22.8655 17.3656C22.5495 18.954 21.6926 20.3837 20.4408 21.4111C19.1889 22.4385 17.6195 23 16 23C15.4477 23 15 23.4477 15 24C15 24.5523 15.4477 25 16 25C18.0822 25 20.1 24.278 21.7095 22.9571C23.3191 21.6362 24.4209 19.798 24.8271 17.7558C25.2333 15.7136 24.9188 13.5938 23.9373 11.7574C22.9558 9.9211 21.3679 8.48191 19.4442 7.68508Z" fill="#7E0F73"/>
</svg>
