<svg width="20" height="20" viewBox="0 0 20 20" fill="none" xmlns="http://www.w3.org/2000/svg">
<path d="M11.7801 2.80104L10.785 2.90054V2.90054L11.7801 2.80104ZM11.7196 2.37975L12.6776 2.093V2.093L11.7196 2.37975ZM11.8946 3.55447L10.9659 3.92533L10.9659 3.92533L11.8946 3.55447ZM13.2178 4.10253L13.6122 5.02145L13.6122 5.02145L13.2178 4.10253ZM13.8315 3.65078L14.4648 4.42474L14.4865 4.40693L14.5072 4.38793L13.8315 3.65078ZM13.8315 3.65077L13.1983 2.87681L13.1765 2.89462L13.1558 2.91362L13.8315 3.65077ZM14.1721 3.39563L13.6975 2.51545L13.6975 2.51546L14.1721 3.39563ZM15.2067 3.44723L15.7665 2.61865L15.7665 2.61865L15.2067 3.44723ZM15.5202 3.735L14.8131 4.44211L14.8131 4.44211L15.5202 3.735ZM16.2648 4.47956L16.9719 3.77245L16.9719 3.77245L16.2648 4.47956ZM16.5525 4.79311L15.724 5.35298L15.724 5.35298L16.5525 4.79311ZM16.6041 5.82762L15.724 5.35298V5.35298L16.6041 5.82762ZM16.349 6.16826L15.575 5.53502L15.575 5.53502L16.349 6.16826ZM15.8972 6.78204L16.8161 7.17647V7.17647L15.8972 6.78204ZM16.4453 8.10515L16.8161 7.17647L16.8161 7.17647L16.4453 8.10515ZM17.1987 8.21972L17.0992 9.21475H17.0992L17.1987 8.21972ZM17.6201 8.28016L17.9068 7.32216L17.6201 8.28016ZM18.3151 9.04814L19.2969 8.85813V8.85812L18.3151 9.04814ZM18.3151 10.9515L17.3333 10.7615V10.7615L18.3151 10.9515ZM17.62 11.7195L17.9067 12.6776L17.9067 12.6776L17.62 11.7195ZM17.1988 11.78L17.0993 10.7849H17.0993L17.1988 11.78ZM16.4457 11.8944L16.075 10.9657H16.075L16.4457 11.8944ZM15.8976 13.2178L16.8165 12.8232L16.8165 12.8232L15.8976 13.2178ZM16.3491 13.8312L17.1491 13.2312L17.1364 13.2143L17.1231 13.1979L16.3491 13.8312ZM16.3491 13.8312L15.5491 14.4312L15.5618 14.4481L15.5752 14.4644L16.3491 13.8312ZM16.6041 14.1716L15.724 14.6463L15.724 14.6463L16.6041 14.1716ZM16.5525 15.2063L15.724 14.6463L15.724 14.6463L16.5525 15.2063ZM16.2649 15.5196L16.972 16.2268V16.2268L16.2649 15.5196ZM15.5202 16.2643L14.8131 15.5572V15.5572L15.5202 16.2643ZM15.2067 16.5521L15.7666 17.3807L15.7666 17.3807L15.2067 16.5521ZM14.1722 16.6037L13.6975 17.4839L13.6975 17.4839L14.1722 16.6037ZM13.8316 16.3485L14.4648 15.5746L14.427 15.5436L14.3863 15.5165L13.8316 16.3485ZM13.8316 16.3485L13.1914 17.1167L13.2324 17.1509L13.2769 17.1806L13.8316 16.3485ZM13.8315 16.3485L14.4717 15.5803L14.4648 15.5746L13.8315 16.3485ZM13.2178 15.8968L12.8234 16.8157L12.8234 16.8157L13.2178 15.8968ZM11.8947 16.4448L10.966 16.074L10.966 16.074L11.8947 16.4448ZM11.7801 17.1984L12.7751 17.2979V17.2979L11.7801 17.1984ZM11.7196 17.62L12.6776 17.9069L12.6776 17.9069L11.7196 17.62ZM10.9517 18.3149L10.7616 17.3332L10.7616 17.3332L10.9517 18.3149ZM9.04826 18.315L8.85825 19.2967H8.85825L9.04826 18.315ZM8.28028 17.6199L7.32228 17.9067L8.28028 17.6199ZM8.21984 17.1986L9.21488 17.0991L9.21162 17.0665L9.20623 17.0342L8.21984 17.1986ZM8.21984 17.1986L7.2248 17.2981L7.22806 17.3307L7.23344 17.363L8.21984 17.1986ZM8.10527 16.4451L7.17659 16.816L8.10527 16.4451ZM6.78217 15.8971L7.17659 16.816L7.17659 16.816L6.78217 15.8971ZM6.16836 16.3489L5.53513 15.5749L5.49652 15.6065L5.46126 15.6418L6.16836 16.3489ZM6.16835 16.3489L6.80159 17.1228L6.84019 17.0913L6.87546 17.056L6.16835 16.3489ZM5.8277 16.6041L5.35307 15.7239L5.35306 15.7239L5.8277 16.6041ZM4.79321 16.5525L5.35306 15.7239L5.35306 15.7239L4.79321 16.5525ZM4.47964 16.2647L5.18675 15.5576L5.16597 15.5368L5.144 15.5173L4.47964 16.2647ZM4.47963 16.2647L3.77253 16.9718L3.7933 16.9925L3.81527 17.0121L4.47963 16.2647ZM3.7351 15.5201L3.02799 16.2272H3.02799L3.7351 15.5201ZM3.4473 15.2066L2.61872 15.7664L2.61872 15.7664L3.4473 15.2066ZM3.39571 14.1721L4.27589 14.6467L4.27589 14.6467L3.39571 14.1721ZM3.65088 13.8314L4.42483 14.4647L4.42484 14.4647L3.65088 13.8314ZM4.10264 13.2176L3.18372 12.8232L3.18372 12.8232L4.10264 13.2176ZM3.55459 11.8945L3.18372 12.8232L3.18372 12.8232L3.55459 11.8945ZM2.80115 11.78L2.63335 12.7658L2.66734 12.7716L2.70165 12.775L2.80115 11.78ZM2.80114 11.78L2.96893 10.7941L2.93494 10.7883L2.90063 10.7849L2.80114 11.78ZM2.37987 11.7195L2.66663 10.7615H2.66663L2.37987 11.7195ZM1.68484 10.9515L0.703059 11.1415L0.703059 11.1415L1.68484 10.9515ZM1.68486 9.04807L0.703091 8.85799L0.703091 8.85799L1.68486 9.04807ZM2.37979 8.28018L2.09296 7.3222H2.09296L2.37979 8.28018ZM2.80125 8.21971L2.70175 7.22467H2.70175L2.80125 8.21971ZM3.55501 8.10508L3.92599 9.03372L3.92599 9.03372L3.55501 8.10508ZM4.10301 6.78212L3.18403 7.17644L3.18403 7.17644L4.10301 6.78212ZM3.65103 6.16803L4.42499 5.53479L4.40363 5.50869L4.38057 5.48408L3.65103 6.16803ZM3.65102 6.16802L2.87707 6.80126L2.89842 6.82736L2.92149 6.85196L3.65102 6.16802ZM3.39569 5.82714L2.51545 6.30168L2.51546 6.30168L3.39569 5.82714ZM3.44728 4.79283L2.61863 4.23306L2.61863 4.23306L3.44728 4.79283ZM3.73523 4.47908L3.02813 3.77197L3.02813 3.77197L3.73523 4.47908ZM4.79324 3.44684L4.23339 2.61825L4.23339 2.61825L4.79324 3.44684ZM5.82773 3.39524L6.30237 2.51506L6.30237 2.51506L5.82773 3.39524ZM6.16846 3.65047L5.53522 4.42443L5.57307 4.4554L5.61375 4.48252L6.16846 3.65047ZM6.16846 3.65048L6.8017 2.87652L6.76385 2.84555L6.72316 2.81842L6.16846 3.65048ZM6.78207 4.10215L6.38752 5.02102L6.38752 5.02102L6.78207 4.10215ZM8.10536 3.55403L7.17663 3.18328L7.17663 3.18328L8.10536 3.55403ZM8.21985 2.80093L7.22481 2.70142V2.70142L8.21985 2.80093ZM8.28025 2.37983L9.23828 2.6665V2.6665L8.28025 2.37983ZM9.04836 1.6847L9.23828 2.6665L9.04836 1.6847ZM10.9516 1.68472L10.7616 2.6665L10.7616 2.6665L10.9516 1.68472ZM12.7751 2.70153C12.7576 2.52683 12.7395 2.29954 12.6776 2.093L10.7616 2.6665C10.7542 2.64169 10.7553 2.63457 10.7609 2.67575C10.767 2.72138 10.7734 2.78407 10.785 2.90054L12.7751 2.70153ZM12.8233 3.18361C12.8432 3.23348 12.8378 3.24626 12.8235 3.1448C12.8101 3.04935 12.7967 2.91745 12.7751 2.70153L10.785 2.90054C10.8049 3.09958 10.8227 3.27889 10.8431 3.42367C10.8626 3.56244 10.8937 3.74446 10.9659 3.92533L12.8233 3.18361ZM12.8233 3.18361L12.8233 3.1836L10.9659 3.92533C11.383 4.96969 12.5788 5.46502 13.6122 5.02145L12.8233 3.18361ZM13.1983 2.87682C13.0303 3.01423 12.9276 3.09803 12.8506 3.15602C12.7688 3.21766 12.774 3.20479 12.8233 3.18361L13.6122 5.02145C13.7912 4.94462 13.9419 4.83792 14.0538 4.75361C14.1706 4.66565 14.3099 4.5514 14.4648 4.42474L13.1983 2.87682ZM13.1558 2.91362L13.1558 2.91363L14.5072 4.38793L14.5073 4.38793L13.1558 2.91362ZM13.6975 2.51546C13.5077 2.61779 13.3342 2.76564 13.1983 2.87681L14.4648 4.42473C14.5553 4.35062 14.6042 4.31082 14.6408 4.28289C14.6738 4.25769 14.6696 4.26351 14.6468 4.2758L13.6975 2.51546ZM15.7665 2.61865C15.1498 2.20191 14.3526 2.16215 13.6975 2.51545L14.6468 4.2758L14.6468 4.2758L15.7665 2.61865ZM16.2273 3.0279C16.1032 2.90375 15.9452 2.73936 15.7665 2.61865L14.6468 4.2758C14.6253 4.2613 14.6217 4.25509 14.652 4.28345C14.6857 4.31489 14.7303 4.35935 14.8131 4.44211L16.2273 3.0279ZM16.9719 3.77245L16.2273 3.0279L14.8131 4.44211L15.5576 5.18667L16.9719 3.77245ZM17.3811 4.23324C17.2604 4.0546 17.096 3.8966 16.9719 3.77245L15.5576 5.18667C15.6404 5.26943 15.6849 5.31408 15.7163 5.34773C15.7447 5.3781 15.7385 5.37444 15.724 5.35298L17.3811 4.23324ZM17.4843 6.30227C17.8376 5.64712 17.7979 4.84998 17.3811 4.23324L15.724 5.35298V5.35298L17.4843 6.30227ZM17.1229 6.80149C17.2341 6.66561 17.382 6.49204 17.4843 6.30227L15.724 5.35298C15.7363 5.33018 15.7421 5.32593 15.7169 5.35896C15.6889 5.39557 15.6491 5.44443 15.575 5.53502L17.1229 6.80149ZM16.8161 7.17647C16.795 7.22582 16.7821 7.23102 16.8437 7.14918C16.9017 7.07218 16.9855 6.96944 17.1229 6.80149L15.575 5.53502C15.4484 5.68984 15.3341 5.82918 15.2461 5.94597C15.1618 6.05792 15.0551 6.20863 14.9783 6.38761L16.8161 7.17647ZM16.8161 7.17647L14.9783 6.3876C14.5347 7.42097 15.0301 8.61677 16.0744 9.03384L16.8161 7.17647ZM17.2982 7.22468C17.0823 7.20309 16.9504 7.1897 16.8549 7.17626C16.7535 7.16197 16.7663 7.15655 16.8161 7.17647L16.0744 9.03383C16.2553 9.10607 16.4373 9.13718 16.5761 9.15672C16.7209 9.17711 16.9002 9.19485 17.0992 9.21475L17.2982 7.22468ZM17.9068 7.32216C17.7003 7.26033 17.473 7.24215 17.2982 7.22468L17.0992 9.21475C17.2157 9.2264 17.2784 9.2328 17.324 9.23894C17.3652 9.24448 17.3581 9.24559 17.3333 9.23816L17.9068 7.32216ZM19.2969 8.85812C19.1554 8.12736 18.6199 7.5356 17.9068 7.32216L17.3333 9.23816L17.3333 9.23816L19.2969 8.85812ZM19.3333 9.47337C19.3333 9.29779 19.3378 9.06981 19.2969 8.85813L17.3333 9.23815C17.3284 9.21273 17.3302 9.20575 17.3316 9.24728C17.3332 9.2933 17.3333 9.35632 17.3333 9.47337H19.3333ZM19.3333 10.5264V9.47337H17.3333V10.5264H19.3333ZM19.2969 11.1414C19.3378 10.9298 19.3333 10.7019 19.3333 10.5264H17.3333C17.3333 10.6434 17.3332 10.7064 17.3316 10.7524C17.3302 10.7939 17.3284 10.7869 17.3333 10.7615L19.2969 11.1414ZM17.9067 12.6776C18.6199 12.4641 19.1555 11.8723 19.2969 11.1414L17.3333 10.7615L17.3333 10.7615L17.9067 12.6776ZM17.2983 12.775C17.473 12.7575 17.7002 12.7394 17.9067 12.6776L17.3333 10.7615C17.3581 10.7541 17.3652 10.7552 17.324 10.7607C17.2784 10.7669 17.2157 10.7733 17.0993 10.7849L17.2983 12.775ZM16.8165 12.8232C16.7666 12.8431 16.7538 12.8377 16.8553 12.8234C16.9507 12.8099 17.0825 12.7966 17.2983 12.775L17.0993 10.7849C16.9004 10.8048 16.7211 10.8225 16.5764 10.8429C16.4377 10.8624 16.2558 10.8935 16.075 10.9657L16.8165 12.8232ZM16.8165 12.8232L16.8165 12.8232L16.075 10.9657C15.0304 11.3827 14.5349 12.5788 14.9787 13.6124L16.8165 12.8232ZM17.1231 13.1979C16.9857 13.0301 16.902 12.9274 16.844 12.8505C16.7824 12.7687 16.7953 12.7739 16.8165 12.8232L14.9787 13.6123C15.0555 13.7912 15.1622 13.9418 15.2465 14.0537C15.3344 14.1704 15.4486 14.3097 15.5752 14.4644L17.1231 13.1979ZM17.1491 13.2312L17.1491 13.2312L15.5491 14.4312L15.5491 14.4312L17.1491 13.2312ZM17.4842 13.6968C17.382 13.5072 17.2342 13.3337 17.1231 13.1979L15.5752 14.4644C15.6492 14.5549 15.689 14.6038 15.7169 14.6403C15.7421 14.6734 15.7363 14.6691 15.724 14.6463L17.4842 13.6968ZM17.381 15.7663C17.7979 15.1494 17.8377 14.3521 17.4842 13.6968L15.724 14.6463L17.381 15.7663ZM16.972 16.2268C17.0961 16.1027 17.2604 15.9448 17.381 15.7662L15.724 14.6463C15.7385 14.6249 15.7447 14.6212 15.7164 14.6516C15.6849 14.6852 15.6405 14.7298 15.5578 14.8125L16.972 16.2268ZM16.2273 16.9714L16.972 16.2268L15.5578 14.8125L14.8131 15.5572L16.2273 16.9714ZM15.7666 17.3807C15.9452 17.2599 16.1032 17.0956 16.2273 16.9714L14.8131 15.5572C14.7304 15.64 14.6857 15.6844 14.6521 15.7159C14.6217 15.7442 14.6254 15.738 14.6468 15.7235L15.7666 17.3807ZM13.6975 17.4839C14.3527 17.8372 15.1498 17.7974 15.7666 17.3807L14.6468 15.7235H14.6468L13.6975 17.4839ZM13.1983 17.1225C13.3342 17.2337 13.5078 17.3815 13.6975 17.4839L14.6468 15.7235C14.6696 15.7358 14.6739 15.7416 14.6408 15.7164C14.6042 15.6885 14.5554 15.6487 14.4648 15.5746L13.1983 17.1225ZM13.2769 17.1806L13.2769 17.1806L14.3863 15.5165L14.3863 15.5165L13.2769 17.1806ZM13.1914 17.1167L13.1914 17.1167L14.4717 15.5803L14.4717 15.5803L13.1914 17.1167ZM12.8234 16.8157C12.774 16.7945 12.7688 16.7816 12.8506 16.8433C12.9276 16.9013 13.0304 16.9851 13.1983 17.1225L14.4648 15.5746C14.31 15.4479 14.1706 15.3336 14.0539 15.2457C13.9419 15.1614 13.7912 15.0547 13.6122 14.9779L12.8234 16.8157ZM12.8234 16.8157V16.8157L13.6122 14.9779C12.5789 14.5343 11.383 15.0296 10.966 16.074L12.8234 16.8157ZM12.7751 17.2979C12.7967 17.082 12.8101 16.95 12.8236 16.8545C12.8379 16.753 12.8433 16.7658 12.8234 16.8157L10.966 16.074C10.8937 16.2549 10.8626 16.4369 10.8431 16.5757C10.8227 16.7205 10.805 16.8998 10.7851 17.0989L12.7751 17.2979ZM12.6776 17.9069C12.7395 17.7002 12.7577 17.4728 12.7751 17.2979L10.7851 17.0989C10.7734 17.2155 10.767 17.2782 10.7609 17.3239C10.7553 17.3651 10.7542 17.358 10.7616 17.3332L12.6776 17.9069ZM11.1418 19.2967C11.8725 19.1552 12.4641 18.6198 12.6776 17.9069L10.7616 17.3332L10.7616 17.3332L11.1418 19.2967ZM10.5263 19.3332C10.702 19.3332 10.9301 19.3377 11.1418 19.2967L10.7616 17.3332C10.7871 17.3282 10.7941 17.3301 10.7525 17.3315C10.7065 17.333 10.6434 17.3332 10.5263 17.3332V19.3332ZM9.47349 19.3332H10.5263V17.3332H9.47349V19.3332ZM8.85825 19.2967C9.06993 19.3377 9.29791 19.3332 9.47349 19.3332V17.3332C9.35644 17.3332 9.29342 17.333 9.2474 17.3315C9.20587 17.3301 9.21285 17.3282 9.23828 17.3332L8.85825 19.2967ZM7.32228 17.9067C7.53572 18.6198 8.12749 19.1553 8.85825 19.2967L9.23828 17.3332L9.23828 17.3332L7.32228 17.9067ZM7.2248 17.2981C7.24227 17.4728 7.26045 17.7001 7.32228 17.9067L9.23828 17.3332C9.24571 17.358 9.2446 17.3651 9.23906 17.3239C9.23293 17.2783 9.22652 17.2156 9.21488 17.0991L7.2248 17.2981ZM7.23344 17.363L7.23345 17.363L9.20623 17.0342L9.20623 17.0342L7.23344 17.363ZM7.23344 17.363L7.23344 17.363L9.20623 17.0342L9.20623 17.0342L7.23344 17.363ZM7.17659 16.816C7.15667 16.7661 7.16209 16.7534 7.17638 16.8548C7.18982 16.9503 7.20321 17.0822 7.2248 17.2981L9.21487 17.0991C9.19497 16.9001 9.17723 16.7207 9.15684 16.576C9.1373 16.4372 9.10619 16.2551 9.03395 16.0743L7.17659 16.816ZM7.17659 16.816L7.17659 16.816L9.03395 16.0743C8.61688 15.0299 7.4211 14.5346 6.38775 14.9782L7.17659 16.816ZM6.8016 17.1228C6.96955 16.9854 7.07229 16.9016 7.1493 16.8436C7.23115 16.782 7.22594 16.7948 7.17659 16.816L6.38775 14.9782C6.20876 15.055 6.05805 15.1617 5.9461 15.246C5.8293 15.334 5.68995 15.4482 5.53513 15.5749L6.8016 17.1228ZM6.87546 17.056L6.87547 17.056L5.46126 15.6418L5.46125 15.6418L6.87546 17.056ZM6.30232 17.4842C6.49211 17.3819 6.6657 17.234 6.80159 17.1228L5.53512 15.5749C5.44452 15.6491 5.39566 15.6889 5.35905 15.7168C5.32601 15.742 5.33027 15.7362 5.35307 15.7239L6.30232 17.4842ZM4.23335 17.3811C4.85008 17.7978 5.6472 17.8375 6.30233 17.4842L5.35306 15.7239H5.35306L4.23335 17.3811ZM3.77253 16.9718C3.89668 17.0959 4.05469 17.2603 4.23335 17.3811L5.35306 15.7239C5.37453 15.7384 5.37818 15.7446 5.34782 15.7162C5.31417 15.6848 5.26951 15.6403 5.18675 15.5576L3.77253 16.9718ZM3.81527 17.0121L3.81527 17.0121L5.144 15.5173L5.144 15.5173L3.81527 17.0121ZM3.02799 16.2272L3.77253 16.9718L5.18674 15.5576L4.4422 14.813L3.02799 16.2272ZM2.61872 15.7664C2.73943 15.9451 2.90384 16.1031 3.02799 16.2272L4.4422 14.813C4.35944 14.7303 4.31497 14.6856 4.28354 14.652C4.25517 14.6216 4.26138 14.6252 4.27589 14.6467L2.61872 15.7664ZM2.51553 13.6974C2.16224 14.3526 2.202 15.1497 2.61872 15.7664L4.27589 14.6467L4.27589 14.6467L2.51553 13.6974ZM2.87692 13.1982C2.76574 13.3341 2.61786 13.5076 2.51553 13.6974L4.27589 14.6467C4.26359 14.6695 4.25777 14.6738 4.28298 14.6407C4.31091 14.6041 4.35071 14.5552 4.42483 14.4647L2.87692 13.1982ZM3.18372 12.8232C3.2049 12.7739 3.21777 12.7687 3.15613 12.8505C3.09814 12.9275 3.01433 13.0302 2.87692 13.1982L4.42484 14.4647C4.55151 14.3098 4.66576 14.1705 4.75372 14.0537C4.83803 13.9418 4.94474 13.7911 5.02157 13.6121L3.18372 12.8232ZM3.18372 12.8232L3.18372 12.8232L5.02157 13.6121C5.46513 12.5787 4.96981 11.3829 3.92545 10.9658L3.18372 12.8232ZM2.70165 12.775C2.91757 12.7966 3.04947 12.81 3.14492 12.8234C3.24637 12.8377 3.23359 12.8431 3.18372 12.8232L3.92545 10.9658C3.74458 10.8936 3.56256 10.8625 3.42379 10.8429C3.27901 10.8226 3.09969 10.8048 2.90066 10.7849L2.70165 12.775ZM2.63334 12.7658L2.63335 12.7658L2.96895 10.7941L2.96893 10.7941L2.63334 12.7658ZM2.09312 12.6775C2.29966 12.7393 2.52694 12.7575 2.70164 12.775L2.90063 10.7849C2.78418 10.7733 2.72149 10.7669 2.67587 10.7607C2.63469 10.7552 2.64181 10.7541 2.66663 10.7615L2.09312 12.6775ZM0.703059 11.1415C0.844486 11.8723 1.38004 12.4641 2.09312 12.6775L2.66663 10.7615H2.66663L0.703059 11.1415ZM0.666626 10.5263C0.666626 10.7019 0.662095 10.9299 0.703059 11.1415L2.66663 10.7615C2.67155 10.7869 2.66974 10.7939 2.66833 10.7524C2.66676 10.7064 2.66663 10.6434 2.66663 10.5263H0.666626ZM0.666626 9.47346V10.5263H2.66663V9.47346H0.666626ZM0.703091 8.85799C0.662091 9.06975 0.666626 9.29781 0.666626 9.47346H2.66663C2.66663 9.35636 2.66676 9.29332 2.66833 9.24728C2.66974 9.20574 2.67155 9.21272 2.66663 9.23816L0.703091 8.85799ZM2.09296 7.3222C1.38002 7.53566 0.844556 8.12734 0.703091 8.85799L2.66663 9.23816L2.66663 9.23816L2.09296 7.3222ZM2.70175 7.22467C2.52698 7.24215 2.29959 7.26033 2.09296 7.3222L2.66663 9.23816C2.6418 9.24559 2.63467 9.24448 2.67588 9.23894C2.72153 9.2328 2.78424 9.2264 2.90076 9.21474L2.70175 7.22467ZM3.18404 7.17644C3.23393 7.15651 3.24671 7.16194 3.14521 7.17623C3.04972 7.18968 2.91777 7.20307 2.70175 7.22467L2.90076 9.21474C3.09988 9.19483 3.27928 9.17709 3.42412 9.15669C3.56295 9.13714 3.74505 9.10601 3.92599 9.03372L3.18404 7.17644ZM3.18403 7.17644H3.18403L3.92599 9.03372C4.97012 8.61661 5.46534 7.42104 5.02198 6.38779L3.18403 7.17644ZM2.87707 6.80126C3.01455 6.9693 3.09841 7.07209 3.15643 7.14913C3.2181 7.23102 3.20522 7.22582 3.18403 7.17644L5.02198 6.38779C4.94514 6.20873 4.83838 6.05794 4.75403 5.94595C4.66603 5.8291 4.55172 5.68969 4.42499 5.53479L2.87707 6.80126ZM2.92149 6.85196L2.92149 6.85197L4.38057 5.48408L4.38056 5.48408L2.92149 6.85196ZM2.51546 6.30168C2.61783 6.49158 2.7658 6.66527 2.87707 6.80126L4.42498 5.53478C4.35081 5.44413 4.31098 5.39523 4.28303 5.35859C4.2578 5.32553 4.26362 5.32979 4.27592 5.3526L2.51546 6.30168ZM2.61863 4.23306C2.20207 4.84971 2.16232 5.64664 2.51545 6.30168L4.27592 5.3526L2.61863 4.23306ZM3.02813 3.77197C2.9039 3.8962 2.73939 4.05429 2.61863 4.23306L4.27592 5.3526C4.26142 5.37408 4.2552 5.37774 4.28358 5.34735C4.31503 5.31368 4.35952 5.269 4.44234 5.18619L3.02813 3.77197ZM3.02813 3.77197L3.02813 3.77197L4.44234 5.18619L4.44234 5.18618L3.02813 3.77197ZM3.77256 3.02754L3.02813 3.77197L4.44234 5.18618L5.18678 4.44175L3.77256 3.02754ZM4.23339 2.61825C4.05473 2.73896 3.89672 2.90338 3.77256 3.02754L5.18678 4.44175C5.26955 4.35898 5.3142 4.31451 5.34785 4.28308C5.37822 4.25471 5.37456 4.26092 5.3531 4.27543L4.23339 2.61825ZM6.30237 2.51506C5.64723 2.16178 4.85011 2.20154 4.23339 2.61825L5.3531 4.27543H5.3531L6.30237 2.51506ZM6.80169 2.87652C6.66576 2.7653 6.49215 2.6174 6.30237 2.51506L5.3531 4.27542C5.33029 4.26313 5.32604 4.2573 5.3591 4.28253C5.39572 4.31047 5.4446 4.35029 5.53522 4.42443L6.80169 2.87652ZM6.72316 2.81842L6.72316 2.81842L5.61375 4.48252L5.61376 4.48253L6.72316 2.81842ZM7.17663 3.18328C7.22597 3.20446 7.23116 3.21733 7.14932 3.15569C7.07233 3.0977 6.96961 3.0139 6.8017 2.87652L5.53522 4.42443C5.69001 4.55108 5.82932 4.6653 5.94607 4.75324C6.05797 4.83752 6.20862 4.94421 6.38752 5.02102L7.17663 3.18328ZM7.17663 3.18328V3.18328L6.38752 5.02102C7.42102 5.4648 8.61709 4.96937 9.03409 3.92478L7.17663 3.18328ZM7.22481 2.70142C7.20323 2.91724 7.18985 3.04909 7.17642 3.14449C7.16214 3.2459 7.15673 3.23313 7.17663 3.18328L9.03409 3.92478C9.10627 3.74398 9.13736 3.56204 9.15689 3.42333C9.17726 3.27861 9.19499 3.09938 9.21489 2.90043L7.22481 2.70142ZM7.32222 2.09317C7.26044 2.29962 7.24227 2.5268 7.22481 2.70142L9.21489 2.90043C9.22653 2.78402 9.23293 2.72136 9.23906 2.67575C9.2446 2.63458 9.2457 2.6417 9.23828 2.6665L7.32222 2.09317ZM8.85844 0.702905C8.12753 0.844292 7.53563 1.37995 7.32222 2.09317L9.23828 2.6665V2.6665L8.85844 0.702905ZM9.47337 0.666504C9.29788 0.666504 9.07002 0.661977 8.85844 0.702905L9.23828 2.6665C9.21286 2.67142 9.20589 2.66961 9.2474 2.6682C9.29339 2.66664 9.35638 2.6665 9.47337 2.6665V0.666504ZM10.5264 0.666504H9.47337V2.6665H10.5264V0.666504ZM11.1416 0.702938C10.93 0.661973 10.702 0.666504 10.5264 0.666504V2.6665C10.6435 2.6665 10.7065 2.66664 10.7525 2.6682C10.794 2.66962 10.7871 2.67143 10.7616 2.6665L11.1416 0.702938ZM12.6776 2.093C12.4642 1.37992 11.8724 0.844365 11.1416 0.702938L10.7616 2.6665L10.7616 2.6665L12.6776 2.093ZM12.3333 9.99984C12.3333 11.2885 11.2886 12.3332 9.99996 12.3332V14.3332C12.3932 14.3332 14.3333 12.3931 14.3333 9.99984H12.3333ZM9.99996 7.6665C11.2886 7.6665 12.3333 8.71117 12.3333 9.99984H14.3333C14.3333 7.6066 12.3932 5.6665 9.99996 5.6665V7.6665ZM7.66663 9.99984C7.66663 8.71117 8.71129 7.6665 9.99996 7.6665V5.6665C7.60672 5.6665 5.66663 7.6066 5.66663 9.99984H7.66663ZM9.99996 12.3332C8.71129 12.3332 7.66663 11.2885 7.66663 9.99984H5.66663C5.66663 12.3931 7.60672 14.3332 9.99996 14.3332V12.3332Z" fill="#33363F"/>
</svg>
