<svg width="20" height="20" viewBox="0 0 20 20" fill="none" xmlns="http://www.w3.org/2000/svg">
<path d="M1.66663 10.0002L0.885757 9.37547L0.386001 10.0002L0.885757 10.6249L1.66663 10.0002ZM9.16663 11.0002C9.71891 11.0002 10.1666 10.5524 10.1666 10.0002C10.1666 9.44788 9.71891 9.00016 9.16663 9.00016V11.0002ZM4.21909 5.2088L0.885757 9.37547L2.44749 10.6249L5.78083 6.45819L4.21909 5.2088ZM0.885757 10.6249L4.21909 14.7915L5.78083 13.5421L2.44749 9.37547L0.885757 10.6249ZM1.66663 11.0002H9.16663V9.00016H1.66663V11.0002Z" fill="#33363F"/>
<path d="M8.33337 6.77645V6.61381C8.33337 5.10095 8.33337 4.34452 8.75104 3.80423C8.78753 3.75702 8.82612 3.71147 8.86669 3.66771C9.33097 3.16691 10.0771 3.04255 11.5694 2.79384V2.79384C14.5988 2.28893 16.1135 2.03648 17.1431 2.81522C17.2313 2.88191 17.3157 2.95342 17.396 3.02942C18.3334 3.91697 18.3334 5.45258 18.3334 8.5238V11.4759C18.3334 14.5471 18.3334 16.0827 17.396 16.9703C17.3157 17.0463 17.2313 17.1178 17.1431 17.1845C16.1135 17.9632 14.5983 17.7107 11.5679 17.2056V17.2056C10.0773 16.9572 9.33201 16.8329 8.86798 16.3334C8.82651 16.2887 8.7871 16.2422 8.74988 16.1939C8.33337 15.6541 8.33337 14.8988 8.33337 13.3881V13.3881" stroke="#33363F" stroke-width="2"/>
</svg>
