<svg width="16" height="16" viewBox="0 0 16 16" fill="none" xmlns="http://www.w3.org/2000/svg">
<path d="M6.58945 4.0168C7.12451 2.68289 7.39205 2.01594 7.82669 1.9235C7.94098 1.8992 8.0591 1.8992 8.17339 1.9235C8.60804 2.01594 8.87557 2.68289 9.41063 4.0168C9.71491 4.77536 9.86705 5.15465 10.1517 5.41262C10.2316 5.48498 10.3183 5.54942 10.4105 5.60505C10.7396 5.80336 11.1503 5.84014 11.9718 5.91372C13.3624 6.03826 14.0578 6.10053 14.2701 6.49698C14.3141 6.57909 14.344 6.66799 14.3585 6.75999C14.4289 7.20418 13.9178 7.66923 12.8955 8.59933L12.6116 8.85761C12.1336 9.29245 11.8946 9.50987 11.7564 9.7812C11.6735 9.94397 11.6179 10.1193 11.5918 10.3001C11.5484 10.6015 11.6184 10.9169 11.7584 11.5477L11.8084 11.7731C12.0594 12.9044 12.1849 13.47 12.0282 13.748C11.8875 13.9978 11.6283 14.1577 11.3419 14.1713C11.0232 14.1866 10.574 13.8206 9.6757 13.0886C9.08385 12.6063 8.78793 12.3652 8.45943 12.271C8.15922 12.1849 7.84086 12.1849 7.54066 12.271C7.21215 12.3652 6.91623 12.6063 6.32439 13.0886C5.42608 13.8206 4.97692 14.1866 4.65815 14.1713C4.37182 14.1577 4.11261 13.9978 3.97189 13.748C3.81523 13.47 3.94073 12.9044 4.19173 11.7731L4.24173 11.5477C4.38169 10.9169 4.45167 10.6015 4.40825 10.3001C4.3822 10.1193 4.3266 9.94397 4.24368 9.7812C4.10545 9.50987 3.86648 9.29245 3.38852 8.85761L3.10463 8.59933C2.08231 7.66923 1.57114 7.20418 1.64154 6.75999C1.65612 6.66799 1.68602 6.57909 1.72999 6.49698C1.94233 6.10053 2.63764 6.03826 4.02828 5.91372C4.84977 5.84014 5.26051 5.80336 5.58954 5.60505C5.68183 5.54942 5.76851 5.48498 5.84836 5.41262C6.13303 5.15465 6.28517 4.77536 6.58945 4.0168Z" fill="#E1E375" stroke="#E1E375" stroke-width="2"/>
</svg>
