<svg width="20" height="20" viewBox="0 0 20 20" fill="none" xmlns="http://www.w3.org/2000/svg">
<path d="M8.3335 12.5L8.3335 10" stroke="#33363F" stroke-width="2" stroke-linecap="round"/>
<path d="M11.6665 12.5L11.6665 10" stroke="#33363F" stroke-width="2" stroke-linecap="round"/>
<path d="M2.5 5.8335H17.5V5.8335C17.0353 5.8335 16.803 5.8335 16.6098 5.87193C15.8164 6.02974 15.1962 6.64993 15.0384 7.44332C15 7.63651 15 7.86884 15 8.3335V12.6668C15 14.5524 15 15.4953 14.4142 16.081C13.8284 16.6668 12.8856 16.6668 11 16.6668H9C7.11438 16.6668 6.17157 16.6668 5.58579 16.081C5 15.4953 5 14.5524 5 12.6668V8.33349C5 7.86884 5 7.63651 4.96157 7.44332C4.80376 6.64993 4.18356 6.02974 3.39018 5.87193C3.19698 5.8335 2.96466 5.8335 2.5 5.8335V5.8335Z" stroke="#33363F" stroke-width="2" stroke-linecap="round"/>
<path d="M8.38996 2.80883C8.48492 2.72023 8.69416 2.64194 8.98523 2.5861C9.27631 2.53027 9.63295 2.5 9.99984 2.5C10.3667 2.5 10.7234 2.53027 11.0144 2.5861C11.3055 2.64194 11.5148 2.72023 11.6097 2.80883" stroke="#33363F" stroke-width="2" stroke-linecap="round"/>
</svg>
