<svg width="20" height="20" viewBox="0 0 20 20" fill="none" xmlns="http://www.w3.org/2000/svg">
<path fill-rule="evenodd" clip-rule="evenodd" d="M15.3818 12.4272C15.9747 11.873 16.4646 11.3237 16.8233 10.8881C17.1468 10.4954 17.3085 10.299 17.3085 10C17.3085 9.701 17.1468 9.50463 16.8233 9.11191C15.6399 7.67512 13.0297 5 9.99997 5C9.39504 5 8.80684 5.10664 8.24339 5.28878L10.5058 7.5512C11.4807 7.75152 12.2484 8.51931 12.4488 9.49415L15.3818 12.4272ZM7.7092 8.99723C7.57464 9.30419 7.49997 9.64337 7.49997 10C7.49997 11.3807 8.61926 12.5 9.99997 12.5C10.3566 12.5 10.6958 12.4253 11.0027 12.2908L12.9268 14.2148C12.0275 14.6858 11.0384 15 9.99997 15C6.97019 15 4.36002 12.3249 3.17661 10.8881C2.85314 10.4954 2.69141 10.299 2.69141 10C2.69141 9.701 2.85314 9.50463 3.17661 9.11191C3.70319 8.47258 4.51227 7.58806 5.51512 6.80314L7.7092 8.99723Z" fill="#33363F"/>
<path d="M4.16663 1.66675L17.5 15.0001" stroke="#33363F" stroke-width="2"/>
</svg>
