<svg width="16" height="10" viewBox="0 0 16 10" fill="none" xmlns="http://www.w3.org/2000/svg">
<path fill-rule="evenodd" clip-rule="evenodd" d="M15.2669 5C15.2669 4.63361 15.0713 4.4024 14.6799 3.93999C13.4376 2.47233 10.9127 0 8.00005 0C5.08737 0 2.56249 2.47233 1.32024 3.93999C0.92885 4.4024 0.733154 4.63361 0.733154 5C0.733154 5.36639 0.92885 5.5976 1.32024 6.06001C2.56249 7.52767 5.08737 10 8.00005 10C10.9127 10 13.4376 7.52767 14.6799 6.06001C15.0713 5.5976 15.2669 5.36639 15.2669 5ZM8.00005 7.5C9.38077 7.5 10.5001 6.38071 10.5001 5C10.5001 3.61929 9.38077 2.5 8.00005 2.5C6.61934 2.5 5.50005 3.61929 5.50005 5C5.50005 6.38071 6.61934 7.5 8.00005 7.5Z" fill="#33363F"/>
</svg>
