<svg width="14" height="14" viewBox="0 0 14 14" fill="none" xmlns="http://www.w3.org/2000/svg">
<path d="M0.75 2.41667V2.41667C0.75 1.49619 1.49619 0.75 2.41667 0.75L11.9405 0.75C12.2035 0.75 12.4167 0.963198 12.4167 1.22619V1.22619C12.4167 2.80415 11.1375 4.08333 9.55952 4.08333H9.5M0.75 2.41667V2.41667C0.75 3.33714 1.49619 4.08333 2.41667 4.08333L11.25 4.08333C12.1928 4.08333 12.6642 4.08333 12.9571 4.37623C13.25 4.66912 13.25 5.14052 13.25 6.08333V7.41667M0.75 2.41667L0.75 9.25C0.75 11.1356 0.75 12.0784 1.33579 12.6642C1.92157 13.25 2.86438 13.25 4.75 13.25L11.25 13.25C12.1928 13.25 12.6642 13.25 12.9571 12.9571C13.25 12.6642 13.25 12.1928 13.25 11.25V10.75M13.25 10.75H11.5833C10.9603 10.75 10.6487 10.75 10.4167 10.616C10.2646 10.5283 10.1384 10.402 10.0506 10.25C9.91667 10.0179 9.91667 9.70641 9.91667 9.08333V9.08333C9.91667 8.46026 9.91667 8.14872 10.0506 7.91667C10.1384 7.76465 10.2646 7.63841 10.4167 7.55064C10.6487 7.41667 10.9603 7.41667 11.5833 7.41667H13.25M13.25 10.75L13.25 7.41667" stroke="#222222"/>
</svg>
